<svg width="20" height="20" viewBox="0 0 20 20" fill="none" xmlns="http://www.w3.org/2000/svg">
<path d="M9.58329 1.66663C9.34996 1.66663 9.16663 1.84996 9.16663 2.08329V5.83329C9.10829 5.83329 9.04163 5.83329 8.98329 5.85829C8.18329 6.05829 7.67496 6.66663 7.29996 7.40829C6.91663 8.13329 6.66663 9.03329 6.66663 9.99996C6.70829 12.5 6.66663 15.025 6.66663 17.5C6.66663 17.9583 7.04163 18.3333 7.49996 18.3333H12.5C12.9583 18.3333 13.3333 17.9583 13.3333 17.5C13.3666 15 13.3333 12.5 13.3333 9.99996C13.3333 9.03329 13.1166 8.13329 12.7333 7.39996C12.3583 6.66663 11.85 6.05829 11.05 5.86663C10.9833 5.83329 10.875 5.83329 10.8333 5.83329V2.08329C10.8333 1.84996 10.65 1.66663 10.4166 1.66663M9.99996 7.37496C10.2666 7.37496 10.525 7.41663 10.65 7.49996C10.7083 7.52496 11 7.71663 11.25 8.17496C11.4833 8.64163 11.6666 9.30829 11.6666 9.99996V16.6666H8.33329V9.99996C8.33329 9.30829 8.51663 8.64163 8.74996 8.17496C8.99996 7.71663 9.29163 7.52496 9.34996 7.49996C9.46663 7.41663 9.73329 7.37496 9.99996 7.37496Z" fill="black"/>
</svg>
