<svg width="16" height="13" viewBox="0 0 16 13" fill="none" xmlns="http://www.w3.org/2000/svg">
<path d="M1.22861 4.95877L0.614307 5.57307L0 4.95877L0.614307 4.34446L1.22861 4.95877ZM15.9998 11.9099C15.9998 12.1403 15.9082 12.3614 15.7453 12.5243C15.5823 12.6873 15.3613 12.7788 15.1309 12.7788C14.9004 12.7788 14.6794 12.6873 14.5165 12.5243C14.3535 12.3614 14.262 12.1403 14.262 11.9099H15.9998ZM4.95877 9.91753L0.614307 5.57307L1.84292 4.34446L6.18738 8.68892L4.95877 9.91753ZM0.614307 4.34446L4.95877 0L6.18738 1.22861L1.84292 5.57307L0.614307 4.34446ZM1.22861 4.08987H9.91753V5.82766H1.22861V4.08987ZM15.9998 10.1721V11.9099H14.262V10.1721H15.9998ZM9.91753 4.08987C11.5306 4.08987 13.0777 4.73068 14.2183 5.87132C15.359 7.01196 15.9998 8.55901 15.9998 10.1721H14.262C14.262 9.0199 13.8043 7.91486 12.9895 7.10012C12.1748 6.28538 11.0698 5.82766 9.91753 5.82766V4.08987Z" fill="#3B2F2F"/>
</svg>
