<svg width="28" height="45" viewBox="0 0 28 45" fill="none" xmlns="http://www.w3.org/2000/svg">
<g clip-path="url(#clip0_0_711)">
<path d="M5.60017 0C4.14767 0 2.93142 1.12 2.80892 2.56375L1.58392 17.2987C1.05892 23.5987 5.30267 29.1287 11.2002 30.4762V39.2H7.00017C5.45142 39.2 4.20017 40.4512 4.20017 42C4.20017 43.5487 5.45142 44.8 7.00017 44.8H21.0002C22.5489 44.8 23.8002 43.5487 23.8002 42C23.8002 40.4512 22.5489 39.2 21.0002 39.2H16.8002V30.485C22.6977 29.1375 26.9414 23.6075 26.4164 17.3075L25.1914 2.5725C25.0689 1.12 23.8527 0 22.4002 0H5.60017ZM7.16642 17.7712L8.17267 5.6H19.8277L20.8427 17.7712C21.1752 21.77 18.0164 25.2 14.0002 25.2C9.98392 25.2 6.82517 21.77 7.16642 17.7712Z" fill="black"/>
</g>
<defs>
<clipPath id="clip0_0_711">
<rect width="28" height="44.8" fill="white"/>
</clipPath>
</defs>
</svg>
