<svg width="20" height="20" viewBox="0 0 20 20" fill="none" xmlns="http://www.w3.org/2000/svg">
<path d="M10.4101 1.77307C9.63279 1.77307 8.85545 1.83206 8.07811 1.94924C6.92186 2.96799 6.30467 4.7344 6.30467 6.45706C6.30467 7.24612 6.43357 8.01174 6.67967 8.68362C6.93357 8.6719 7.18357 8.66409 7.43748 8.66409C8.16014 8.63284 8.65623 8.66409 9.25779 8.76565C9.01951 8.0469 8.90232 7.25393 8.90232 6.45706C8.90232 4.75002 9.43357 2.97659 10.5469 1.7762H10.4101V1.77307ZM11.539 1.8176C10.2773 2.81057 9.60545 4.65627 9.60545 6.45706C9.60545 7.32424 9.75779 8.16018 10.0547 8.87502C10.5234 8.94924 10.9883 9.04299 11.457 9.15627C11.6836 9.16409 11.9062 9.21096 12.1172 9.28909C11.6484 8.46096 11.375 7.38674 11.375 6.21096C11.375 4.96877 11.6797 3.83713 12.1992 2.99299C12.4414 2.59651 12.7422 2.25823 13.082 2.01135C12.5664 1.92151 12.0547 1.85627 11.539 1.8176ZM6.91795 2.16721C6.79295 2.19612 6.66404 2.2262 6.53514 2.25823L6.51951 2.26213L6.50779 2.26604C3.78084 2.72034 3.1492 6.78518 4.61326 8.91018C5.05857 8.83206 5.50389 8.77346 5.9492 8.73049C5.71873 8.02346 5.60154 7.24221 5.60154 6.45706C5.60154 4.92581 6.02732 3.34377 6.91795 2.16721ZM14.3672 2.27307C13.7929 2.27307 13.2344 2.65354 12.8008 3.36174C12.3633 4.07034 12.0781 5.08596 12.0781 6.21096C12.0781 7.33596 12.3633 8.35159 12.8008 9.05862C13.2344 9.76956 13.7929 10.1485 14.3672 10.1485C14.9414 10.1485 15.5 9.76956 15.9336 9.05862C16.3711 8.35159 16.6562 7.33596 16.6562 6.21096C16.6562 5.08596 16.3711 4.07034 15.9336 3.36174C15.5 2.65354 14.9414 2.27307 14.3672 2.27307ZM14.3633 7.50784H14.3711C14.6523 7.51174 14.8242 7.71487 14.914 7.89846C15.0039 8.08206 15.0469 8.28909 15.0469 8.51956C15.0469 8.75002 15.0039 8.95706 14.914 9.14065C14.8242 9.32424 14.6523 9.52737 14.3711 9.53127H14.3633C14.082 9.52737 13.9101 9.32424 13.8203 9.14065C13.7304 8.95706 13.6875 8.75002 13.6875 8.51956C13.6875 8.28909 13.7304 8.08206 13.8203 7.89846C13.9101 7.71487 14.082 7.51174 14.3633 7.50784ZM7.43748 9.36331C6.66404 9.36331 5.8867 9.4219 5.10936 9.53909C3.95311 10.5586 3.33396 12.3203 3.33396 14.043C3.33396 15.6836 3.8824 17.2188 4.91014 18.0235C5.73436 18.1563 6.55857 18.2266 7.37889 18.2266C6.40232 17.2149 5.93357 15.6367 5.93357 14.0469C5.93357 12.336 6.46092 10.5625 7.57811 9.36331H7.43748ZM8.57029 9.40627C7.30467 10.3985 6.63279 12.2461 6.63279 14.0469C6.63279 15.8047 7.26561 17.4453 8.4492 18.1953C9.00389 18.1563 9.55857 18.0899 10.1133 17.9961C9.77342 17.7461 9.47654 17.4102 9.23435 17.0156C8.71482 16.168 8.41014 15.0391 8.41014 13.7969C8.41014 12.5547 8.71482 11.4258 9.23435 10.5821C9.47654 10.1875 9.77342 9.84768 10.1094 9.60159C9.59373 9.51174 9.08201 9.44534 8.57029 9.40627ZM3.94529 9.76174C3.816 9.78909 3.69139 9.82034 3.56521 9.85159H3.54842L3.53631 9.85549C-0.0117773 10.4453 -0.0117773 17.1524 3.53631 17.7422L3.54842 17.7461H3.56521L3.70779 17.7813C2.98084 16.7813 2.63279 15.418 2.63279 14.043C2.63279 12.5156 3.05779 10.9336 3.94529 9.76174ZM11.3984 9.8594C10.8242 9.8594 10.2695 10.2422 9.83201 10.9492C9.39451 11.6563 9.10935 12.6719 9.10935 13.7969C9.10935 14.9258 9.39451 15.9375 9.83201 16.6485C10.2695 17.3555 10.8242 17.7383 11.3984 17.7383C11.9726 17.7383 12.5273 17.3555 12.9648 16.6485C13.4023 15.9375 13.6875 14.9258 13.6875 13.7969C13.6875 12.6719 13.4023 11.6563 12.9648 10.9492C12.5273 10.2422 11.9726 9.8594 11.3984 9.8594ZM16.8281 9.8594C16.4804 9.86331 16.1367 10.0039 15.8203 10.2774C15.8125 10.2852 15.8047 10.293 15.7969 10.2969C15.6054 10.4688 15.4258 10.6875 15.2656 10.9531C14.832 11.6602 14.5469 12.6719 14.5469 13.7969C14.5469 14.9219 14.832 15.9375 15.2695 16.6446C15.7031 17.3555 16.2617 17.7344 16.8359 17.7344C17.4101 17.7344 17.9687 17.3555 18.4023 16.6446C18.8398 15.9375 19.125 14.9219 19.125 13.7969C19.125 12.6719 18.8398 11.6563 18.4023 10.9492C17.9687 10.2383 17.4101 9.8594 16.8359 9.8594H16.8281ZM11.3984 15.0977C11.6797 15.0977 11.8554 15.3008 11.9492 15.4844C12.039 15.668 12.0781 15.875 12.0781 16.1094C12.0781 16.3399 12.039 16.5508 11.9492 16.7305C11.8554 16.918 11.6797 17.1172 11.3984 17.1172C11.1172 17.1172 10.9414 16.918 10.8515 16.7305C10.7578 16.5508 10.7187 16.3399 10.7187 16.1094C10.7187 15.875 10.7578 15.668 10.8515 15.4844C10.9414 15.3008 11.1172 15.0977 11.3984 15.0977ZM16.832 15.0977H16.8398C17.1211 15.1016 17.2929 15.3047 17.3828 15.4883C17.4726 15.6719 17.5156 15.8789 17.5156 16.1094C17.5156 16.3399 17.4726 16.5469 17.3828 16.7305C17.2929 16.9141 17.1211 17.1172 16.8398 17.1211H16.832C16.5508 17.1172 16.3789 16.9141 16.289 16.7305C16.1992 16.5469 16.1562 16.3399 16.1562 16.1094C16.1562 15.8789 16.1992 15.6719 16.289 15.4883C16.3789 15.3047 16.5508 15.1016 16.832 15.0977ZM14.1172 15.7539C13.9804 16.2188 13.7929 16.6446 13.5664 17.0156C13.2344 17.5469 12.8086 17.9766 12.3203 18.2188C13.3945 18.2539 14.4726 18.1836 15.5469 17.9961C15.2109 17.75 14.9101 17.4102 14.6679 17.0156C14.4414 16.6446 14.2539 16.2188 14.1172 15.7539Z" fill="black"/>
</svg>
