<svg width="30" height="30" viewBox="0 0 30 30" fill="none" xmlns="http://www.w3.org/2000/svg">
<path d="M15.6153 2.65955C14.4493 2.65955 13.2833 2.74802 12.1173 2.9238C10.3829 4.45193 9.45712 7.10154 9.45712 9.68552C9.45712 10.8691 9.65048 12.0176 10.0196 13.0254C10.4005 13.0078 10.7755 12.9961 11.1563 12.9961C12.2403 12.9492 12.9845 12.9961 13.8868 13.1484C13.5294 12.0703 13.3536 10.8808 13.3536 9.68552C13.3536 7.12498 14.1505 4.46482 15.8204 2.66423H15.6153V2.65955ZM17.3087 2.72634C15.4161 4.2158 14.4083 6.98435 14.4083 9.68552C14.4083 10.9863 14.6368 12.2402 15.0821 13.3125C15.7852 13.4238 16.4825 13.5644 17.1856 13.7343C17.5255 13.7461 17.8595 13.8164 18.1759 13.9336C17.4727 12.6914 17.0626 11.0801 17.0626 9.31638C17.0626 7.4531 17.5196 5.75564 18.2989 4.48943C18.6622 3.8947 19.1134 3.38728 19.6231 3.01697C18.8497 2.8822 18.0821 2.78435 17.3087 2.72634ZM10.377 3.25076C10.1895 3.29412 9.99619 3.33923 9.80283 3.38728L9.77939 3.39314L9.76181 3.399C5.67138 4.08044 4.72392 10.1777 6.92001 13.3652C7.58798 13.248 8.25595 13.1601 8.92392 13.0957C8.57822 12.0351 8.40244 10.8633 8.40244 9.68552C8.40244 7.38865 9.04111 5.0156 10.377 3.25076ZM21.5509 3.40955C20.6895 3.40955 19.8517 3.98025 19.2013 5.04255C18.545 6.10544 18.1173 7.62888 18.1173 9.31638C18.1173 11.0039 18.545 12.5273 19.2013 13.5879C19.8517 14.6543 20.6895 15.2226 21.5509 15.2226C22.4122 15.2226 23.2501 14.6543 23.9005 13.5879C24.5567 12.5273 24.9845 11.0039 24.9845 9.31638C24.9845 7.62888 24.5567 6.10544 23.9005 5.04255C23.2501 3.98025 22.4122 3.40955 21.5509 3.40955ZM21.545 11.2617H21.5567C21.9786 11.2676 22.2364 11.5722 22.3712 11.8476C22.506 12.123 22.5704 12.4336 22.5704 12.7793C22.5704 13.125 22.506 13.4355 22.3712 13.7109C22.2364 13.9863 21.9786 14.291 21.5567 14.2969H21.545C21.1231 14.291 20.8653 13.9863 20.7306 13.7109C20.5958 13.4355 20.5313 13.125 20.5313 12.7793C20.5313 12.4336 20.5958 12.123 20.7306 11.8476C20.8653 11.5722 21.1231 11.2676 21.545 11.2617ZM11.1563 14.0449C9.99619 14.0449 8.83017 14.1328 7.66416 14.3086C5.92978 15.8379 5.00107 18.4804 5.00107 21.0644C5.00107 23.5254 5.82373 25.8281 7.36533 27.0351C8.60166 27.2344 9.83798 27.3398 11.0685 27.3398C9.60361 25.8222 8.90048 23.4551 8.90048 21.0703C8.90048 18.5039 9.6915 15.8437 11.3673 14.0449H11.1563ZM12.8556 14.1094C10.9571 15.5976 9.94931 18.3691 9.94931 21.0703C9.94931 23.707 10.8985 26.1679 12.6739 27.2929C13.506 27.2343 14.338 27.1347 15.17 26.9941C14.6602 26.6191 14.2149 26.1152 13.8517 25.5234C13.0724 24.2519 12.6153 22.5586 12.6153 20.6953C12.6153 18.832 13.0724 17.1386 13.8517 15.873C14.2149 15.2812 14.6602 14.7715 15.1642 14.4023C14.3907 14.2676 13.6231 14.1679 12.8556 14.1094ZM5.91806 14.6426C5.72412 14.6836 5.5372 14.7304 5.34794 14.7773H5.32275L5.30459 14.7832C-0.0175438 15.6679 -0.0175438 25.7285 5.30459 26.6133L5.32275 26.6191H5.34794L5.56181 26.6718C4.47138 25.1718 3.94931 23.1269 3.94931 21.0644C3.94931 18.7734 4.58681 16.4004 5.91806 14.6426ZM17.0977 14.789C16.2364 14.789 15.4044 15.3633 14.7481 16.4238C14.0919 17.4843 13.6642 19.0078 13.6642 20.6953C13.6642 22.3886 14.0919 23.9062 14.7481 24.9726C15.4044 26.0332 16.2364 26.6074 17.0977 26.6074C17.9591 26.6074 18.7911 26.0332 19.4474 24.9726C20.1036 23.9062 20.5313 22.3886 20.5313 20.6953C20.5313 19.0078 20.1036 17.4843 19.4474 16.4238C18.7911 15.3633 17.9591 14.789 17.0977 14.789ZM25.2423 14.789C24.7208 14.7949 24.2052 15.0058 23.7306 15.416C23.7188 15.4277 23.7071 15.4394 23.6954 15.4453C23.4083 15.7031 23.1388 16.0312 22.8985 16.4297C22.2481 17.4902 21.8204 19.0078 21.8204 20.6953C21.8204 22.3828 22.2481 23.9062 22.9044 24.9668C23.5548 26.0332 24.3927 26.6015 25.254 26.6015C26.1153 26.6015 26.9532 26.0332 27.6036 24.9668C28.2599 23.9062 28.6876 22.3828 28.6876 20.6953C28.6876 19.0078 28.2599 17.4843 27.6036 16.4238C26.9532 15.3574 26.1153 14.789 25.254 14.789H25.2423ZM17.0977 22.6465C17.5196 22.6465 17.7833 22.9511 17.9239 23.2265C18.0587 23.5019 18.1173 23.8125 18.1173 24.164C18.1173 24.5097 18.0587 24.8261 17.9239 25.0957C17.7833 25.3769 17.5196 25.6758 17.0977 25.6758C16.6759 25.6758 16.4122 25.3769 16.2774 25.0957C16.1368 24.8261 16.0782 24.5097 16.0782 24.164C16.0782 23.8125 16.1368 23.5019 16.2774 23.2265C16.4122 22.9511 16.6759 22.6465 17.0977 22.6465ZM25.2481 22.6465H25.2599C25.6817 22.6523 25.9395 22.957 26.0743 23.2324C26.2091 23.5078 26.2735 23.8183 26.2735 24.164C26.2735 24.5097 26.2091 24.8203 26.0743 25.0957C25.9395 25.3711 25.6817 25.6758 25.2599 25.6816H25.2481C24.8263 25.6758 24.5685 25.3711 24.4337 25.0957C24.2989 24.8203 24.2345 24.5097 24.2345 24.164C24.2345 23.8183 24.2989 23.5078 24.4337 23.2324C24.5685 22.957 24.8263 22.6523 25.2481 22.6465ZM21.1759 23.6308C20.9708 24.3281 20.6895 24.9668 20.3497 25.5234C19.8517 26.3203 19.213 26.9648 18.4806 27.3281C20.0919 27.3808 21.7091 27.2754 23.3204 26.9941C22.8165 26.625 22.3653 26.1152 22.002 25.5234C21.6622 24.9668 21.381 24.3281 21.1759 23.6308Z" fill="#FFFDD0"/>
</svg>
