<svg width="20" height="20" viewBox="0 0 20 20" fill="none" xmlns="http://www.w3.org/2000/svg">
<path d="M10 11.6667C11.8384 11.6667 13.3334 10.1717 13.3334 8.33333C13.3334 6.495 11.8384 5 10 5C8.16169 5 6.66669 6.495 6.66669 8.33333C6.66669 10.1717 8.16169 11.6667 10 11.6667ZM10 6.66667C10.9192 6.66667 11.6667 7.41417 11.6667 8.33333C11.6667 9.2525 10.9192 10 10 10C9.08085 10 8.33335 9.2525 8.33335 8.33333C8.33335 7.41417 9.08085 6.66667 10 6.66667Z" fill="black"/>
<path d="M9.51666 18.1783C9.6577 18.279 9.82668 18.3332 9.99999 18.3332C10.1733 18.3332 10.3423 18.279 10.4833 18.1783C10.7367 17.9991 16.6908 13.7 16.6667 8.33329C16.6667 4.65746 13.6758 1.66663 9.99999 1.66663C6.32416 1.66663 3.33333 4.65746 3.33333 8.32913C3.30916 13.7 9.26333 17.9991 9.51666 18.1783ZM9.99999 3.33329C12.7575 3.33329 15 5.57579 15 8.33746C15.0175 12.0358 11.3433 15.3566 9.99999 16.4458C8.65749 15.3558 4.98249 12.0341 4.99999 8.33329C4.99999 5.57579 7.24249 3.33329 9.99999 3.33329Z" fill="black"/>
</svg>
