<svg width="20" height="20" viewBox="0 0 20 20" fill="none" xmlns="http://www.w3.org/2000/svg">
<path d="M3.33335 3.33329H6.67502V1.66663H1.66669V6.66663H3.33335V3.33329ZM3.33335 13.3333H1.66669V18.3333H6.67502V16.6666H3.33335V13.3333ZM16.6667 16.6666H13.3334V18.3333H18.3334V13.3333H16.6667V16.6666ZM13.3334 3.33329H16.6667V6.66663H18.3334V1.66663H13.3334V3.33329Z" fill="black"/>
<path d="M4.16669 9.16663H9.16669V4.16663H4.16669V9.16663ZM5.83335 5.83329H7.50002V7.49996H5.83335V5.83329ZM4.16669 15.8333H9.16669V10.8333H4.16669V15.8333ZM5.83335 12.5H7.50002V14.1666H5.83335V12.5ZM15.8334 4.16663H10.8334V9.16663H15.8334V4.16663ZM14.1667 7.49996H12.5V5.83329H14.1667V7.49996ZM10.8417 10.8333H12.5084V12.5H10.8417V10.8333ZM12.5084 12.5H14.175V14.1666H12.5084V12.5ZM14.175 14.1666H15.8417V15.8333H14.175V14.1666ZM14.175 10.8333H15.8417V12.5H14.175V10.8333Z" fill="black"/>
</svg>
