<svg width="16" height="13" viewBox="0 0 16 13" fill="none" xmlns="http://www.w3.org/2000/svg">
<path d="M1.22863 4.95884L0.614316 5.57316L0 4.95884L0.614316 4.34453L1.22863 4.95884ZM16 11.9101C16 12.1405 15.9085 12.3615 15.7455 12.5245C15.5826 12.6875 15.3616 12.779 15.1311 12.779C14.9007 12.779 14.6797 12.6875 14.5167 12.5245C14.3538 12.3615 14.2622 12.1405 14.2622 11.9101H16ZM4.95885 9.91769L0.614316 5.57316L1.84295 4.34453L6.18748 8.68906L4.95885 9.91769ZM0.614316 4.34453L4.95885 0L6.18748 1.22863L1.84295 5.57316L0.614316 4.34453ZM1.22863 4.08994H9.91769V5.82775H1.22863V4.08994ZM16 10.1723V11.9101H14.2622V10.1723H16ZM9.91769 4.08994C11.5308 4.08994 13.0779 4.73076 14.2186 5.87142C15.3592 7.01208 16 8.55914 16 10.1723H14.2622C14.2622 9.02004 13.8045 7.91499 12.9897 7.10023C12.175 6.28548 11.0699 5.82775 9.91769 5.82775V4.08994Z" fill="white"/>
</svg>
