<svg width="40" height="47" viewBox="0 0 40 47" fill="none" xmlns="http://www.w3.org/2000/svg">
<path fill-rule="evenodd" clip-rule="evenodd" d="M36.3715 15.6183C36.366 14.6661 36.3604 13.6844 36.3604 12.6738C36.3606 4.64943 40.429 1.60613 39.9629 0.533831C39.5322 -0.457078 35.2292 0.235145 20.2653 0.235183C5.21348 0.235221 0.887593 -0.465147 0.43716 0.551511C-0.0447993 1.63933 3.91019 4.69294 3.91019 12.6738C3.91019 14.4731 3.87521 16.1808 3.84217 17.7936C3.78642 20.5153 3.73619 22.967 3.86892 25.1342C3.83489 26.7893 3.85649 28.5751 3.87963 30.487C3.89543 31.7932 3.91195 33.1583 3.91192 34.5807C3.91176 42.6739 -0.378246 45.6124 0.0271208 46.5764C0.395071 47.4514 4.63159 46.6996 19.4564 46.6996C34.7452 46.6995 39.1002 47.4991 39.5706 46.4893C40.0587 45.4412 36.3622 42.444 36.3622 34.5807C36.3622 33.1586 36.3787 31.7938 36.3945 30.4879C36.4298 27.5764 36.4615 24.9572 36.2986 22.647C36.3997 20.5241 36.3862 18.1777 36.3715 15.6183Z" fill="black"/>
</svg>
