<svg width="20" height="20" viewBox="0 0 20 20" fill="none" xmlns="http://www.w3.org/2000/svg">
<path d="M16.6667 3.33329H14.025L12.5 1.66663H7.50002L5.97502 3.33329H3.33335C2.89133 3.33329 2.4674 3.50889 2.15484 3.82145C1.84228 4.13401 1.66669 4.55793 1.66669 4.99996V15C1.66669 15.442 1.84228 15.8659 2.15484 16.1785C2.4674 16.491 2.89133 16.6666 3.33335 16.6666H16.6667C17.1087 16.6666 17.5326 16.491 17.8452 16.1785C18.1578 15.8659 18.3334 15.442 18.3334 15V4.99996C18.3334 4.55793 18.1578 4.13401 17.8452 3.82145C17.5326 3.50889 17.1087 3.33329 16.6667 3.33329ZM16.6667 15H3.33335V4.99996H6.70835L8.23335 3.33329H11.7667L13.2917 4.99996H16.6667V15ZM10 5.83329C8.89495 5.83329 7.83514 6.27228 7.05374 7.05368C6.27234 7.83508 5.83335 8.89489 5.83335 9.99996C5.83335 11.105 6.27234 12.1648 7.05374 12.9462C7.83514 13.7276 8.89495 14.1666 10 14.1666C11.1051 14.1666 12.1649 13.7276 12.9463 12.9462C13.7277 12.1648 14.1667 11.105 14.1667 9.99996C14.1667 8.89489 13.7277 7.83508 12.9463 7.05368C12.1649 6.27228 11.1051 5.83329 10 5.83329ZM10 12.5C9.33698 12.5 8.70109 12.2366 8.23225 11.7677C7.76341 11.2989 7.50002 10.663 7.50002 9.99996C7.50002 9.33692 7.76341 8.70103 8.23225 8.23219C8.70109 7.76335 9.33698 7.49996 10 7.49996C10.6631 7.49996 11.2989 7.76335 11.7678 8.23219C12.2366 8.70103 12.5 9.33692 12.5 9.99996C12.5 10.663 12.2366 11.2989 11.7678 11.7677C11.2989 12.2366 10.6631 12.5 10 12.5Z" fill="black"/>
</svg>
