<svg width="20" height="20" viewBox="0 0 20 20" fill="none" xmlns="http://www.w3.org/2000/svg">
<path opacity="0.16" d="M3.33337 15.0001C3.33337 14.116 3.68456 13.2682 4.30968 12.6431C4.93481 12.0179 5.78265 11.6667 6.66671 11.6667H13.3334C14.2174 11.6667 15.0653 12.0179 15.6904 12.6431C16.3155 13.2682 16.6667 14.116 16.6667 15.0001C16.6667 15.4421 16.4911 15.866 16.1786 16.1786C15.866 16.4912 15.4421 16.6667 15 16.6667H5.00004C4.55801 16.6667 4.13409 16.4912 3.82153 16.1786C3.50897 15.866 3.33337 15.4421 3.33337 15.0001Z" fill="black"/>
<path d="M3.33337 15.0001C3.33337 14.116 3.68456 13.2682 4.30968 12.6431C4.93481 12.0179 5.78265 11.6667 6.66671 11.6667H13.3334C14.2174 11.6667 15.0653 12.0179 15.6904 12.6431C16.3155 13.2682 16.6667 14.116 16.6667 15.0001C16.6667 15.4421 16.4911 15.866 16.1786 16.1786C15.866 16.4912 15.4421 16.6667 15 16.6667H5.00004C4.55801 16.6667 4.13409 16.4912 3.82153 16.1786C3.50897 15.866 3.33337 15.4421 3.33337 15.0001Z" stroke="black" stroke-width="1.66667" stroke-linejoin="round"/>
<path d="M10 8.33337C11.3807 8.33337 12.5 7.21409 12.5 5.83337C12.5 4.45266 11.3807 3.33337 10 3.33337C8.61929 3.33337 7.5 4.45266 7.5 5.83337C7.5 7.21409 8.61929 8.33337 10 8.33337Z" stroke="black" stroke-width="1.66667"/>
</svg>
