<svg width="20" height="20" viewBox="0 0 20 20" fill="none" xmlns="http://www.w3.org/2000/svg">
<g clip-path="url(#clip0_0_1022)">
<path d="M8.75016 16.6667C8.75016 16.9982 8.88186 17.3162 9.11628 17.5506C9.3507 17.785 9.66864 17.9167 10.0002 17.9167C10.3317 17.9167 10.6496 17.785 10.884 17.5506C11.1185 17.3162 11.2502 16.9982 11.2502 16.6667V11.25H16.6668C16.9984 11.25 17.3163 11.1183 17.5507 10.8839C17.7851 10.6495 17.9168 10.3316 17.9168 10C17.9168 9.66852 17.7851 9.35058 17.5507 9.11616C17.3163 8.88174 16.9984 8.75004 16.6668 8.75004H11.2502V3.33337C11.2502 3.00185 11.1185 2.68391 10.884 2.44949C10.6496 2.21507 10.3317 2.08337 10.0002 2.08337C9.66864 2.08337 9.3507 2.21507 9.11628 2.44949C8.88186 2.68391 8.75016 3.00185 8.75016 3.33337V8.75004H3.3335C3.00198 8.75004 2.68403 8.88174 2.44961 9.11616C2.21519 9.35058 2.0835 9.66852 2.0835 10C2.0835 10.3316 2.21519 10.6495 2.44961 10.8839C2.68403 11.1183 3.00198 11.25 3.3335 11.25H8.75016V16.6667Z" fill="#560000"/>
</g>
<defs>
<clipPath id="clip0_0_1022">
<rect width="20" height="20" fill="white"/>
</clipPath>
</defs>
</svg>
