<svg width="30" height="31" viewBox="0 0 30 31" fill="none" xmlns="http://www.w3.org/2000/svg">
<path opacity="0.16" d="M5 22.9891C5 21.6342 5.52678 20.3348 6.46447 19.3767C7.40215 18.4187 8.67392 17.8804 10 17.8804H20C21.3261 17.8804 22.5979 18.4187 23.5355 19.3767C24.4732 20.3348 25 21.6342 25 22.9891C25 23.6666 24.7366 24.3163 24.2678 24.7953C23.7989 25.2744 23.163 25.5435 22.5 25.5435H7.5C6.83696 25.5435 6.20107 25.2744 5.73223 24.7953C5.26339 24.3163 5 23.6666 5 22.9891Z" fill="#634E99"/>
<path d="M5 22.9891C5 21.6342 5.52678 20.3348 6.46447 19.3767C7.40215 18.4187 8.67392 17.8804 10 17.8804H20C21.3261 17.8804 22.5979 18.4187 23.5355 19.3767C24.4732 20.3348 25 21.6342 25 22.9891C25 23.6666 24.7366 24.3163 24.2678 24.7953C23.7989 25.2744 23.163 25.5435 22.5 25.5435H7.5C6.83696 25.5435 6.20107 25.2744 5.73223 24.7953C5.26339 24.3163 5 23.6666 5 22.9891Z" stroke="#634E99" stroke-width="1.66667" stroke-linejoin="round"/>
<path d="M15 12.7717C17.0711 12.7717 18.75 11.0563 18.75 8.94023C18.75 6.82413 17.0711 5.1087 15 5.1087C12.9289 5.1087 11.25 6.82413 11.25 8.94023C11.25 11.0563 12.9289 12.7717 15 12.7717Z" stroke="#634E99" stroke-width="1.66667"/>
</svg>
