<svg width="30" height="31" viewBox="0 0 30 31" fill="none" xmlns="http://www.w3.org/2000/svg">
<path d="M9.375 10.5367C10.3696 10.5367 11.3234 10.133 12.0267 9.41447C12.7299 8.69592 13.125 7.72136 13.125 6.70518C13.125 5.689 12.7299 4.71443 12.0267 3.99588C11.3234 3.27733 10.3696 2.87366 9.375 2.87366C8.38044 2.87366 7.42661 3.27733 6.72335 3.99588C6.02009 4.71443 5.625 5.689 5.625 6.70518C5.625 7.72136 6.02009 8.69592 6.72335 9.41447C7.42661 10.133 8.38044 10.5367 9.375 10.5367ZM1.875 14.8472C1.875 14.212 2.12193 13.6029 2.56147 13.1539C3.00101 12.7048 3.59715 12.4525 4.21875 12.4525H10.1953C9.96227 13.0631 9.84303 13.7128 9.84375 14.3682C9.84375 16.1499 10.7091 17.7256 12.0347 18.6787H9.84375C9.15818 18.6786 8.4857 18.8705 7.89943 19.2336C7.31315 19.5967 6.83551 20.1171 6.51844 20.7381C4.72219 20.2659 3.57281 19.3473 2.86312 18.3051C1.875 16.8539 1.875 15.351 1.875 15.0866V14.8472ZM23.4816 20.7381C25.2778 20.2659 26.4272 19.3473 27.1369 18.3051C28.125 16.8539 28.125 15.35 28.125 15.0866V14.8472C28.125 14.212 27.8781 13.6029 27.4385 13.1539C26.999 12.7048 26.4029 12.4525 25.7812 12.4525H19.8047C20.0316 13.0463 20.1562 13.692 20.1562 14.3682C20.1562 16.1499 19.2909 17.7256 17.9653 18.6787H20.1562C20.8418 18.6786 21.5143 18.8705 22.1006 19.2336C22.6868 19.5967 23.1645 20.1171 23.4816 20.7381ZM24.375 6.70518C24.375 7.72136 23.9799 8.69592 23.2766 9.41447C22.5734 10.133 21.6196 10.5367 20.625 10.5367C19.6304 10.5367 18.6766 10.133 17.9734 9.41447C17.2701 8.69592 16.875 7.72136 16.875 6.70518C16.875 5.689 17.2701 4.71443 17.9734 3.99588C18.6766 3.27733 19.6304 2.87366 20.625 2.87366C21.6196 2.87366 22.5734 3.27733 23.2766 3.99588C23.9799 4.71443 24.375 5.689 24.375 6.70518ZM7.5 22.5102C7.5 21.8751 7.74693 21.266 8.18647 20.8169C8.62601 20.3678 9.22215 20.1155 9.84375 20.1155H20.1562C20.464 20.1155 20.7688 20.1774 21.0532 20.2978C21.3375 20.4181 21.5959 20.5945 21.8135 20.8169C22.0312 21.0393 22.2038 21.3033 22.3216 21.5938C22.4394 21.8843 22.5 22.1957 22.5 22.5102V22.7497C22.5 23.0131 22.5 24.517 21.5119 25.9682C20.4806 27.4826 18.5212 28.7364 15 28.7364C11.4797 28.7364 9.51937 27.4826 8.48812 25.9682C7.5 24.517 7.5 23.0141 7.5 22.7497V22.5102ZM15 18.1997C15.9946 18.1997 16.9484 17.7961 17.6516 17.0775C18.3549 16.359 18.75 15.3844 18.75 14.3682C18.75 13.352 18.3549 12.3775 17.6516 11.6589C16.9484 10.9404 15.9946 10.5367 15 10.5367C14.0054 10.5367 13.0516 10.9404 12.3483 11.6589C11.6451 12.3775 11.25 13.352 11.25 14.3682C11.25 15.3844 11.6451 16.359 12.3483 17.0775C13.0516 17.7961 14.0054 18.1997 15 18.1997Z" fill="#634E99"/>
</svg>
