<svg width="30" height="31" viewBox="0 0 30 31" fill="none" xmlns="http://www.w3.org/2000/svg">
<path d="M15.6153 2.71741C14.4493 2.71741 13.2833 2.80781 12.1173 2.98741C10.3829 4.54876 9.45712 7.25596 9.45712 9.89612C9.45712 11.1054 9.65048 12.2789 10.0196 13.3086C10.4005 13.2906 10.7755 13.2786 11.1563 13.2786C12.2403 13.2307 12.9845 13.2786 13.8868 13.4343C13.5294 12.3327 13.3536 11.1174 13.3536 9.89612C13.3536 7.27991 14.1505 4.56193 15.8204 2.7222H15.6153V2.71741ZM17.3087 2.78566C15.4161 4.30749 14.4083 7.13623 14.4083 9.89612C14.4083 11.2252 14.6368 12.5063 15.0821 13.6019C15.7852 13.7157 16.4825 13.8594 17.1856 14.033C17.5255 14.0449 17.8595 14.1168 18.1759 14.2365C17.4727 12.9673 17.0626 11.321 17.0626 9.51896C17.0626 7.61517 17.5196 5.88081 18.2989 4.58707C18.6622 3.97941 19.1134 3.46096 19.6231 3.0826C18.8497 2.9449 18.0821 2.84493 17.3087 2.78566ZM10.377 3.32147C10.1895 3.36577 9.99619 3.41187 9.80283 3.46096L9.77939 3.46695L9.76181 3.47294C5.67138 4.16919 4.72392 10.399 6.92001 13.6558C7.58798 13.5361 8.25595 13.4463 8.92392 13.3804C8.57822 12.2968 8.40244 11.0995 8.40244 9.89612C8.40244 7.54932 9.04111 5.12468 10.377 3.32147ZM21.5509 3.48371C20.6895 3.48371 19.8517 4.06682 19.2013 5.15222C18.545 6.23822 18.1173 7.79477 18.1173 9.51896C18.1173 11.2431 18.545 12.7997 19.2013 13.8833C19.8517 14.9729 20.6895 15.5536 21.5509 15.5536C22.4122 15.5536 23.2501 14.9729 23.9005 13.8833C24.5567 12.7997 24.9845 11.2431 24.9845 9.51896C24.9845 7.79477 24.5567 6.23822 23.9005 5.15222C23.2501 4.06682 22.4122 3.48371 21.5509 3.48371ZM21.545 11.5066H21.5567C21.9786 11.5125 22.2364 11.8239 22.3712 12.1052C22.506 12.3866 22.5704 12.7039 22.5704 13.0571C22.5704 13.4103 22.506 13.7276 22.3712 14.009C22.2364 14.2904 21.9786 14.6017 21.5567 14.6077H21.545C21.1231 14.6017 20.8653 14.2904 20.7306 14.009C20.5958 13.7276 20.5313 13.4103 20.5313 13.0571C20.5313 12.7039 20.5958 12.3866 20.7306 12.1052C20.8653 11.8239 21.1231 11.5125 21.545 11.5066ZM11.1563 14.3503C9.99619 14.3503 8.83017 14.4401 7.66416 14.6197C5.92978 16.1822 5.00107 18.8822 5.00107 21.5224C5.00107 24.0368 5.82373 26.3896 7.36533 27.6229C8.60166 27.8264 9.83798 27.9342 11.0685 27.9342C9.60361 26.3836 8.90048 23.965 8.90048 21.5284C8.90048 18.9062 9.6915 16.1882 11.3673 14.3503H11.1563ZM12.8556 14.4161C10.9571 15.9368 9.94931 18.7685 9.94931 21.5284C9.94931 24.2224 10.8985 26.7369 12.6739 27.8863C13.506 27.8264 14.338 27.7247 15.17 27.581C14.6602 27.1978 14.2149 26.683 13.8517 26.0783C13.0724 24.7792 12.6153 23.049 12.6153 21.1452C12.6153 19.2414 13.0724 17.5113 13.8517 16.2181C14.2149 15.6135 14.6602 15.0926 15.1642 14.7155C14.3907 14.5778 13.6231 14.476 12.8556 14.4161ZM5.91806 14.9609C5.72412 15.0028 5.5372 15.0507 5.34794 15.0986H5.32275L5.30459 15.1046C-0.0175438 16.0086 -0.0175438 26.2879 5.30459 27.1919L5.32275 27.1978H5.34794L5.56181 27.2517C4.47138 25.7191 3.94931 23.6297 3.94931 21.5224C3.94931 19.1816 4.58681 16.7569 5.91806 14.9609ZM17.0977 15.1106C16.2364 15.1106 15.4044 15.6973 14.7481 16.7809C14.0919 17.8645 13.6642 19.421 13.6642 21.1452C13.6642 22.8754 14.0919 24.426 14.7481 25.5156C15.4044 26.5992 16.2364 27.1859 17.0977 27.1859C17.9591 27.1859 18.7911 26.5992 19.4474 25.5156C20.1036 24.426 20.5313 22.8754 20.5313 21.1452C20.5313 19.421 20.1036 17.8645 19.4474 16.7809C18.7911 15.6973 17.9591 15.1106 17.0977 15.1106ZM25.2423 15.1106C24.7208 15.1166 24.2052 15.3321 23.7306 15.7512C23.7188 15.7631 23.7071 15.7751 23.6954 15.7811C23.4083 16.0445 23.1388 16.3798 22.8985 16.7869C22.2481 17.8705 21.8204 19.421 21.8204 21.1452C21.8204 22.8694 22.2481 24.426 22.9044 25.5096C23.5548 26.5992 24.3927 27.1799 25.254 27.1799C26.1153 27.1799 26.9532 26.5992 27.6036 25.5096C28.2599 24.426 28.6876 22.8694 28.6876 21.1452C28.6876 19.421 28.2599 17.8645 27.6036 16.7809C26.9532 15.6913 26.1153 15.1106 25.254 15.1106H25.2423ZM17.0977 23.1388C17.5196 23.1388 17.7833 23.4501 17.9239 23.7315C18.0587 24.0129 18.1173 24.3302 18.1173 24.6894C18.1173 25.0426 18.0587 25.3659 17.9239 25.6413C17.7833 25.9286 17.5196 26.234 17.0977 26.234C16.6759 26.234 16.4122 25.9286 16.2774 25.6413C16.1368 25.3659 16.0782 25.0426 16.0782 24.6894C16.0782 24.3302 16.1368 24.0129 16.2774 23.7315C16.4122 23.4501 16.6759 23.1388 17.0977 23.1388ZM25.2481 23.1388H25.2599C25.6817 23.1448 25.9395 23.4561 26.0743 23.7375C26.2091 24.0189 26.2735 24.3362 26.2735 24.6894C26.2735 25.0426 26.2091 25.3599 26.0743 25.6413C25.9395 25.9227 25.6817 26.234 25.2599 26.24H25.2481C24.8263 26.234 24.5685 25.9227 24.4337 25.6413C24.2989 25.3599 24.2345 25.0426 24.2345 24.6894C24.2345 24.3362 24.2989 24.0189 24.4337 23.7375C24.5685 23.4561 24.8263 23.1448 25.2481 23.1388ZM21.1759 24.1446C20.9708 24.857 20.6895 25.5096 20.3497 26.0783C19.8517 26.8925 19.213 27.5511 18.4806 27.9222C20.0919 27.9761 21.7091 27.8684 23.3204 27.581C22.8165 27.2038 22.3653 26.683 22.002 26.0783C21.6622 25.5096 21.381 24.857 21.1759 24.1446Z" fill="#634E99"/>
</svg>
