<svg width="20" height="20" viewBox="0 0 20 20" fill="none" xmlns="http://www.w3.org/2000/svg">
<path d="M3.33336 8.33335L2.7442 8.92251L2.15503 8.33335L2.7442 7.74418L3.33336 8.33335ZM17.5 15C17.5 15.221 17.4122 15.433 17.256 15.5893C17.0997 15.7456 16.8877 15.8333 16.6667 15.8333C16.4457 15.8333 16.2337 15.7456 16.0774 15.5893C15.9212 15.433 15.8334 15.221 15.8334 15H17.5ZM6.91086 13.0892L2.7442 8.92251L3.92253 7.74418L8.0892 11.9108L6.91086 13.0892ZM2.7442 7.74418L6.91086 3.57751L8.0892 4.75585L3.92253 8.92251L2.7442 7.74418ZM3.33336 7.50001H11.6667V9.16668H3.33336V7.50001ZM17.5 13.3333V15H15.8334V13.3333H17.5ZM11.6667 7.50001C13.2138 7.50001 14.6975 8.1146 15.7915 9.20856C16.8854 10.3025 17.5 11.7863 17.5 13.3333H15.8334C15.8334 12.2283 15.3944 11.1685 14.613 10.3871C13.8316 9.60567 12.7718 9.16668 11.6667 9.16668V7.50001Z" fill="black"/>
</svg>
