<svg width="30" height="30" viewBox="0 0 30 30" fill="none" xmlns="http://www.w3.org/2000/svg">
<path d="M9.375 10.3125C10.3696 10.3125 11.3234 9.91741 12.0267 9.21415C12.7299 8.51089 13.125 7.55706 13.125 6.5625C13.125 5.56794 12.7299 4.61411 12.0267 3.91085C11.3234 3.20759 10.3696 2.8125 9.375 2.8125C8.38044 2.8125 7.42661 3.20759 6.72335 3.91085C6.02009 4.61411 5.625 5.56794 5.625 6.5625C5.625 7.55706 6.02009 8.51089 6.72335 9.21415C7.42661 9.91741 8.38044 10.3125 9.375 10.3125ZM1.875 14.5312C1.875 13.9096 2.12193 13.3135 2.56147 12.874C3.00101 12.4344 3.59715 12.1875 4.21875 12.1875H10.1953C9.96227 12.7851 9.84303 13.421 9.84375 14.0625C9.84375 15.8062 10.7091 17.3484 12.0347 18.2812H9.84375C9.15818 18.2812 8.4857 18.469 7.89943 18.8244C7.31315 19.1797 6.83551 19.689 6.51844 20.2969C4.72219 19.8347 3.57281 18.9356 2.86312 17.9156C1.875 16.4953 1.875 15.0244 1.875 14.7656V14.5312ZM23.4816 20.2969C25.2778 19.8347 26.4272 18.9356 27.1369 17.9156C28.125 16.4953 28.125 15.0234 28.125 14.7656V14.5312C28.125 13.9096 27.8781 13.3135 27.4385 12.874C26.999 12.4344 26.4029 12.1875 25.7812 12.1875H19.8047C20.0316 12.7688 20.1562 13.4006 20.1562 14.0625C20.1562 15.8062 19.2909 17.3484 17.9653 18.2812H20.1562C20.8418 18.2812 21.5143 18.469 22.1006 18.8244C22.6868 19.1797 23.1645 19.689 23.4816 20.2969ZM24.375 6.5625C24.375 7.55706 23.9799 8.51089 23.2766 9.21415C22.5734 9.91741 21.6196 10.3125 20.625 10.3125C19.6304 10.3125 18.6766 9.91741 17.9734 9.21415C17.2701 8.51089 16.875 7.55706 16.875 6.5625C16.875 5.56794 17.2701 4.61411 17.9734 3.91085C18.6766 3.20759 19.6304 2.8125 20.625 2.8125C21.6196 2.8125 22.5734 3.20759 23.2766 3.91085C23.9799 4.61411 24.375 5.56794 24.375 6.5625ZM7.5 22.0312C7.5 21.4096 7.74693 20.8135 8.18647 20.374C8.62601 19.9344 9.22215 19.6875 9.84375 19.6875H20.1562C20.464 19.6875 20.7688 19.7481 21.0532 19.8659C21.3375 19.9837 21.5959 20.1563 21.8135 20.374C22.0312 20.5916 22.2038 20.85 22.3216 21.1343C22.4394 21.4187 22.5 21.7235 22.5 22.0312V22.2656C22.5 22.5234 22.5 23.9953 21.5119 25.4156C20.4806 26.8978 18.5212 28.125 15 28.125C11.4797 28.125 9.51937 26.8978 8.48812 25.4156C7.5 23.9953 7.5 22.5244 7.5 22.2656V22.0312ZM15 17.8125C15.9946 17.8125 16.9484 17.4174 17.6516 16.7141C18.3549 16.0109 18.75 15.0571 18.75 14.0625C18.75 13.0679 18.3549 12.1141 17.6516 11.4108C16.9484 10.7076 15.9946 10.3125 15 10.3125C14.0054 10.3125 13.0516 10.7076 12.3483 11.4108C11.6451 12.1141 11.25 13.0679 11.25 14.0625C11.25 15.0571 11.6451 16.0109 12.3483 16.7141C13.0516 17.4174 14.0054 17.8125 15 17.8125Z" fill="white"/>
</svg>
