<svg width="20" height="20" viewBox="0 0 20 20" fill="none" xmlns="http://www.w3.org/2000/svg">
<path d="M12.366 4.18429C12.2069 4.11009 12.0235 4.17682 11.9493 4.33595L10.7568 6.8934C10.717 6.87485 10.6715 6.85365 10.6238 6.85214C10.0146 6.73413 9.47445 6.98735 8.98284 7.3739C8.49085 7.74643 8.03414 8.28072 7.72673 8.93997C6.9601 10.6582 6.1287 12.367 5.34161 14.0549C5.19585 14.3674 5.33234 14.7424 5.64492 14.8882L9.05485 16.4783C9.36743 16.624 9.74243 16.4876 9.88819 16.175C10.706 14.4806 11.4783 12.765 12.2733 11.0601C12.5807 10.4008 12.7192 9.71813 12.691 9.0961C12.6684 8.47672 12.5152 7.90019 12.0306 7.51506C11.9957 7.47113 11.9218 7.43667 11.8934 7.42342L13.086 4.86597C13.1602 4.70684 13.0934 4.52351 12.9343 4.4493M10.8348 8.20981C11.0167 8.29461 11.1796 8.40518 11.2383 8.50177C11.2702 8.53737 11.4081 8.76083 11.4329 9.15292C11.4436 9.54538 11.3566 10.0583 11.1367 10.53L9.01656 15.0766L6.74327 14.0166L8.86337 9.47C9.08333 8.99829 9.42037 8.60193 9.72791 8.35788C10.0442 8.1248 10.304 8.08684 10.3518 8.08834C10.4578 8.06861 10.6529 8.125 10.8348 8.20981Z" fill="black"/>
</svg>
