<svg width="94" height="84" viewBox="0 0 94 84" fill="none" xmlns="http://www.w3.org/2000/svg">
<path d="M84 9.33333H69.2067L60.6667 0H32.6667L24.1267 9.33333H9.33333C6.85798 9.33333 4.48401 10.3167 2.73367 12.067C0.98333 13.8173 0 16.1913 0 18.6667V74.6667C0 77.142 0.98333 79.516 2.73367 81.2663C4.48401 83.0167 6.85798 84 9.33333 84H84C86.4753 84 88.8493 83.0167 90.5997 81.2663C92.35 79.516 93.3333 77.142 93.3333 74.6667V18.6667C93.3333 16.1913 92.35 13.8173 90.5997 12.067C88.8493 10.3167 86.4753 9.33333 84 9.33333ZM84 74.6667H9.33333V18.6667H28.2333L36.7733 9.33333H56.56L65.1 18.6667H84V74.6667ZM46.6667 23.3333C40.4783 23.3333 34.5434 25.7917 30.1675 30.1675C25.7917 34.5434 23.3333 40.4783 23.3333 46.6667C23.3333 52.855 25.7917 58.79 30.1675 63.1658C34.5434 67.5417 40.4783 70 46.6667 70C52.855 70 58.79 67.5417 63.1658 63.1658C67.5417 58.79 70 52.855 70 46.6667C70 40.4783 67.5417 34.5434 63.1658 30.1675C58.79 25.7917 52.855 23.3333 46.6667 23.3333ZM46.6667 60.6667C42.9536 60.6667 39.3927 59.1917 36.7672 56.5662C34.1417 53.9407 32.6667 50.3797 32.6667 46.6667C32.6667 42.9536 34.1417 39.3927 36.7672 36.7672C39.3927 34.1417 42.9536 32.6667 46.6667 32.6667C50.3797 32.6667 53.9407 34.1417 56.5662 36.7672C59.1917 39.3927 60.6667 42.9536 60.6667 46.6667C60.6667 50.3797 59.1917 53.9407 56.5662 56.5662C53.9407 59.1917 50.3797 60.6667 46.6667 60.6667Z" fill="black"/>
</svg>
