<svg width="40" height="47" viewBox="0 0 40 47" fill="none" xmlns="http://www.w3.org/2000/svg">
<path fill-rule="evenodd" clip-rule="evenodd" d="M36.3714 15.6183C36.3659 14.6661 36.3603 13.6844 36.3603 12.6738C36.3605 4.64943 40.4289 1.60613 39.9628 0.533831C39.5321 -0.457078 35.2291 0.235145 20.2652 0.235183C5.21337 0.235221 0.887491 -0.465147 0.437059 0.551511C-0.044901 1.63933 3.91008 4.69294 3.91008 12.6738C3.91008 14.4731 3.8751 16.1808 3.84207 17.7936C3.78631 20.5153 3.73609 22.967 3.86882 25.1342C3.83478 26.7893 3.85639 28.5751 3.87953 30.487C3.89533 31.7932 3.91185 33.1583 3.91182 34.5807C3.91166 42.6739 -0.378348 45.6124 0.0270191 46.5764C0.394969 47.4514 4.63149 46.6996 19.4563 46.6996C34.7451 46.6995 39.1001 47.4991 39.5705 46.4893C40.0586 45.4412 36.3621 42.444 36.3621 34.5807C36.3621 33.1586 36.3786 31.7938 36.3944 30.4879C36.4297 27.5764 36.4614 24.9572 36.2985 22.647C36.3996 20.5241 36.3861 18.1777 36.3714 15.6183Z" fill="white"/>
</svg>
