<svg width="48" height="48" viewBox="0 0 48 48" fill="none" xmlns="http://www.w3.org/2000/svg">
<path d="M23.66 18L30 24.32V24C30 22.4087 29.3679 20.8826 28.2426 19.7574C27.1174 18.6321 25.5913 18 24 18H23.66ZM15.06 19.6L18.16 22.7C18.06 23.12 18 23.54 18 24C18 25.5913 18.6321 27.1174 19.7574 28.2426C20.8826 29.3679 22.4087 30 24 30C24.44 30 24.88 29.94 25.3 29.84L28.4 32.94C27.06 33.6 25.58 34 24 34C21.3478 34 18.8043 32.9464 16.9289 31.0711C15.0536 29.1957 14 26.6522 14 24C14 22.42 14.4 20.94 15.06 19.6ZM4 8.54L8.56 13.1L9.46 14C6.16 16.6 3.56 20 2 24C5.46 32.78 14 39 24 39C27.1 39 30.06 38.4 32.76 37.32L33.62 38.16L39.46 44L42 41.46L6.54 6M24 14C26.6522 14 29.1957 15.0536 31.0711 16.9289C32.9464 18.8043 34 21.3478 34 24C34 25.28 33.74 26.52 33.28 27.64L39.14 33.5C42.14 31 44.54 27.72 46 24C42.54 15.22 34 9 24 9C21.2 9 18.52 9.5 16 10.4L20.34 14.7C21.48 14.26 22.7 14 24 14Z" fill="black"/>
</svg>
