<svg width="30" height="31" viewBox="0 0 30 31" fill="none" xmlns="http://www.w3.org/2000/svg">
<path d="M19.375 17.8805H18.3875L18.0375 17.5356C19.3048 16.0337 20.0014 14.1162 20 12.1332C20 10.4913 19.5235 8.88623 18.6307 7.52104C17.7379 6.15584 16.469 5.0918 14.9843 4.46347C13.4997 3.83514 11.866 3.67074 10.2899 3.99106C8.7138 4.31138 7.26606 5.10203 6.12976 6.26304C4.99346 7.42404 4.21963 8.90325 3.90612 10.5136C3.59262 12.124 3.75352 13.7931 4.36848 15.3101C4.98344 16.827 6.02485 18.1235 7.361 19.0357C8.69714 19.9479 10.268 20.4348 11.875 20.4348C13.8875 20.4348 15.7375 19.6813 17.1625 18.4296L17.5 18.7873V19.7962L23.75 26.1693L25.6125 24.2663L19.375 17.8805ZM11.875 17.8805C8.7625 17.8805 6.25 15.3133 6.25 12.1332C6.25 8.95301 8.7625 6.38589 11.875 6.38589C14.9875 6.38589 17.5 8.95301 17.5 12.1332C17.5 15.3133 14.9875 17.8805 11.875 17.8805Z" fill="#634E99"/>
</svg>
