<svg width="20" height="20" viewBox="0 0 20 20" fill="none" xmlns="http://www.w3.org/2000/svg">
<path fill-rule="evenodd" clip-rule="evenodd" d="M4.33749 14.6875C4.33749 14.8171 4.31195 14.9455 4.26232 15.0654C4.21269 15.1852 4.13995 15.294 4.04826 15.3857C3.95656 15.4774 3.8477 15.5502 3.72789 15.5998C3.60808 15.6494 3.47967 15.675 3.34999 15.675C3.22031 15.675 3.0919 15.6494 2.97209 15.5998C2.85228 15.5502 2.74342 15.4774 2.65172 15.3857C2.56002 15.294 2.48728 15.1852 2.43766 15.0654C2.38803 14.9455 2.36249 14.8171 2.36249 14.6875C2.36249 14.4255 2.46653 14.1744 2.65172 13.9892C2.83691 13.804 3.08809 13.7 3.34999 13.7C3.61189 13.7 3.86306 13.804 4.04826 13.9892C4.23345 14.1744 4.33749 14.4255 4.33749 14.6875ZM17.625 14.6875C17.625 14.9494 17.5209 15.2005 17.3358 15.3857C17.1506 15.5709 16.8994 15.675 16.6375 15.675C16.3756 15.675 16.1244 15.5709 15.9392 15.3857C15.754 15.2005 15.65 14.9494 15.65 14.6875C15.65 14.4255 15.754 14.1744 15.9392 13.9892C16.1244 13.804 16.3756 13.7 16.6375 13.7C16.8994 13.7 17.1506 13.804 17.3358 13.9892C17.5209 14.1744 17.625 14.4255 17.625 14.6875Z" fill="#00A6ED"/>
<path fill-rule="evenodd" clip-rule="evenodd" d="M6.40627 8.29375L8.39377 10.9625L4.27502 11.4375L5.60002 8.38125C5.28127 8.25625 5.05627 7.94375 5.05627 7.58125C5.05627 7.10625 5.44377 6.71875 5.91877 6.71875C6.10259 6.71972 6.28132 6.77927 6.42898 6.88875C6.57665 6.99823 6.68557 7.15193 6.73992 7.32753C6.79428 7.50313 6.79123 7.69149 6.73123 7.86525C6.67123 8.039 6.5574 8.1891 6.40627 8.29375ZM14.3813 8.38125L15.7063 11.4375L11.5875 10.9625L13.575 8.29375C13.35 8.1375 13.2 7.875 13.2 7.58125C13.2 7.10625 13.5875 6.71875 14.0625 6.71875C14.5375 6.71875 14.925 7.10625 14.925 7.58125C14.925 7.94375 14.7 8.25625 14.3813 8.38125Z" fill="#E19747"/>
<path d="M18.7375 8.18125C18.7375 7.70625 18.35 7.31875 17.875 7.31875C17.4 7.31875 17.0125 7.70625 17.0125 8.18125C17.0125 8.35625 17.0688 8.525 17.1562 8.65625C17.0188 8.65625 16.8812 8.6875 16.75 8.775L14.2938 10.3625C13.9688 10.5687 13.5437 10.4937 13.3125 10.1812L10.5813 6.475C10.5618 6.44517 10.5387 6.41788 10.5125 6.39375C10.7216 6.27865 10.8864 6.09729 10.9811 5.87822C11.0758 5.65915 11.0949 5.41481 11.0355 5.18367C10.9761 4.95253 10.8415 4.74772 10.6529 4.60147C10.4643 4.45523 10.2324 4.37585 9.99375 4.37585C9.75509 4.37585 9.52322 4.45523 9.33462 4.60147C9.14602 4.74772 9.01142 4.95253 8.952 5.18367C8.89258 5.41481 8.91172 5.65915 9.0064 5.87822C9.10108 6.09729 9.26593 6.27865 9.475 6.39375C9.45 6.41875 9.425 6.44375 9.40625 6.475L6.675 10.1812C6.45 10.4937 6.01875 10.5687 5.69375 10.3625L3.2375 8.775C3.10625 8.6875 2.96875 8.65625 2.83125 8.65625C2.925 8.51875 2.975 8.35625 2.975 8.18125C2.975 7.70625 2.5875 7.31875 2.1125 7.31875C1.6375 7.31875 1.25 7.70625 1.25 8.18125C1.25 8.65625 1.6375 9.04375 2.1125 9.04375C2.14375 9.04375 2.175 9.04375 2.2 9.0375C2.11875 9.18125 2.0875 9.35 2.125 9.53125L3.75 17.6375C3.86875 18.2187 4.38125 18.6375 4.975 18.6375H15.0125C15.6062 18.6375 16.1187 18.2187 16.2375 17.6375L17.8625 9.53125C17.9 9.35 17.8625 9.175 17.7875 9.0375C17.8188 9.0375 17.85 9.04375 17.875 9.04375C18.35 9.04375 18.7375 8.65625 18.7375 8.18125Z" fill="#FFB02E"/>
<path d="M9.99377 16.25C10.4082 16.25 10.8056 16.0854 11.0986 15.7924C11.3917 15.4993 11.5563 15.1019 11.5563 14.6875C11.5563 14.2731 11.3917 13.8757 11.0986 13.5826C10.8056 13.2896 10.4082 13.125 9.99377 13.125C9.57937 13.125 9.18195 13.2896 8.88892 13.5826C8.59589 13.8757 8.43127 14.2731 8.43127 14.6875C8.43127 15.1019 8.59589 15.4993 8.88892 15.7924C9.18195 16.0854 9.57937 16.25 9.99377 16.25Z" fill="#00A6ED"/>
<path fill-rule="evenodd" clip-rule="evenodd" d="M6.875 14.6875C6.875 14.9361 6.77623 15.1746 6.60041 15.3504C6.4246 15.5262 6.18614 15.625 5.9375 15.625C5.68886 15.625 5.4504 15.5262 5.27459 15.3504C5.09877 15.1746 5 14.9361 5 14.6875C5 14.4389 5.09877 14.2004 5.27459 14.0246C5.4504 13.8488 5.68886 13.75 5.9375 13.75C6.18614 13.75 6.4246 13.8488 6.60041 14.0246C6.77623 14.2004 6.875 14.4389 6.875 14.6875ZM15 14.6875C15 14.9361 14.9012 15.1746 14.7254 15.3504C14.5496 15.5262 14.3111 15.625 14.0625 15.625C13.8139 15.625 13.5754 15.5262 13.3996 15.3504C13.2238 15.1746 13.125 14.9361 13.125 14.6875C13.125 14.4389 13.2238 14.2004 13.3996 14.0246C13.5754 13.8488 13.8139 13.75 14.0625 13.75C14.3111 13.75 14.5496 13.8488 14.7254 14.0246C14.9012 14.2004 15 14.4389 15 14.6875Z" fill="#F8312F"/>
</svg>
