<svg width="16" height="16" viewBox="0 0 16 16" fill="none" xmlns="http://www.w3.org/2000/svg">
<path fill-rule="evenodd" clip-rule="evenodd" d="M13.4737 1H2.52632C1.68335 1 1 1.68335 1 2.52632C1 3.36928 1.68335 4.05263 2.52632 4.05263H13.4737C14.3166 4.05263 15 3.36928 15 2.52632C15 1.68335 14.3166 1 13.4737 1ZM2.52632 0C1.13107 0 0 1.13107 0 2.52632C0 3.92156 1.13107 5.05263 2.52632 5.05263H5.86658V5.21055V5.44563C5.86658 6.61836 6.81283 7.57007 7.98347 7.57891H7.49996V8.80031C7.49996 9.06453 7.67281 9.29766 7.92563 9.37443L8.29045 9.4852L6.74503 9.88742C6.11373 10.0517 6.16114 10.9634 6.8061 11.0613L8.409 11.3046L6.67716 11.8305C6.06565 12.0162 6.1296 12.9019 6.76142 12.9978L9.00175 13.3379L7.83777 13.9034C7.63113 14.0038 7.49996 14.2134 7.49996 14.4431V16H8.49996V14.6935L10.5958 13.6753C11.1256 13.4179 11.0061 12.6308 10.4237 12.5424L8.65759 12.2742L10.3894 11.7484C11.0009 11.5627 10.937 10.677 10.3052 10.5811L8.88095 10.3648L9.91585 10.0955C10.502 9.94292 10.5186 9.11669 9.93905 8.9407L8.49996 8.50373V7.57891H8.01635C9.18699 7.57007 10.1332 6.61836 10.1332 5.44563V5.21055V5.05263H13.4737C14.8689 5.05263 16 3.92156 16 2.52632C16 1.13107 14.8689 0 13.4737 0H2.52632ZM9.13324 5.21055H6.86658V5.44563C6.86658 6.07156 7.37399 6.57897 7.99991 6.57897C8.62583 6.57897 9.13324 6.07156 9.13324 5.44563V5.21055Z" fill="#560000"/>
</svg>
