<svg width="20" height="20" viewBox="0 0 20 20" fill="none" xmlns="http://www.w3.org/2000/svg">
<path d="M3.33335 3.33335H6.67502V1.66669H1.66669V6.66669H3.33335V3.33335ZM3.33335 13.3334H1.66669V18.3334H6.67502V16.6667H3.33335V13.3334ZM16.6667 16.6667H13.3334V18.3334H18.3334V13.3334H16.6667V16.6667ZM13.3334 3.33335H16.6667V6.66669H18.3334V1.66669H13.3334V3.33335Z" fill="white"/>
<path d="M4.16669 9.16669H9.16669V4.16669H4.16669V9.16669ZM5.83335 5.83335H7.50002V7.50002H5.83335V5.83335ZM4.16669 15.8334H9.16669V10.8334H4.16669V15.8334ZM5.83335 12.5H7.50002V14.1667H5.83335V12.5ZM15.8334 4.16669H10.8334V9.16669H15.8334V4.16669ZM14.1667 7.50002H12.5V5.83335H14.1667V7.50002ZM10.8417 10.8334H12.5084V12.5H10.8417V10.8334ZM12.5084 12.5H14.175V14.1667H12.5084V12.5ZM14.175 14.1667H15.8417V15.8334H14.175V14.1667ZM14.175 10.8334H15.8417V12.5H14.175V10.8334Z" fill="white"/>
</svg>
